<?xml version="1.0" encoding="utf-8"?>
<!-- Generator: Adobe Illustrator 16.0.0, SVG Export Plug-In . SVG Version: 6.00 Build 0)  -->
<!DOCTYPE svg PUBLIC "-//W3C//DTD SVG 1.1//EN" "http://www.w3.org/Graphics/SVG/1.1/DTD/svg11.dtd">
<svg version="1.1" id="Layer_1" xmlns="http://www.w3.org/2000/svg" xmlns:xlink="http://www.w3.org/1999/xlink" x="0px" y="0px"
	 width="974.951px" height="141px" viewBox="0 0 974.951 141" enable-background="new 0 0 974.951 141" xml:space="preserve">
<text transform="matrix(1 0 0 1 5 109.2422)" font-family="'OpenSans'" font-size="119.7022">Meteor</text>
<g>
	<text transform="matrix(1 0 0 1 554.1484 109.2422)" font-family="'OpenSans'" font-size="119.7022">Factory</text>
</g>
<path fill="#E27C3D" d="M485.372,97.061c0,0,0.017-0.328,0.047-0.944c0.016-0.311,0.032-0.69,0.056-1.142
	c0.033-0.559,0.071-1.202,0.112-1.921c0.11-1.436,0.283-3.05,0.628-5.029c0.149-0.969,0.429-2.06,0.675-3.162
	c0.353-1.152,0.63-2.312,1.165-3.591c0.441-1.246,1.117-2.576,1.826-3.905c0.421-0.667,0.86-1.339,1.313-2.007
	c0.453-0.667,1.054-1.308,1.602-1.954c2.315-2.562,5.561-4.609,8.89-5.614c0.826-0.219,1.673-0.502,2.498-0.63
	c0.819-0.119,1.646-0.228,2.468-0.325c0.817-0.083,1.599-0.045,2.396-0.063l1.192,0l0.072,0c-0.156,0.01-0.024,0.002-0.053,0.007
	l0.031,0.001l0.119,0.007l0.244,0.013l0.484,0.027c0.642,0.036,1.284,0.069,1.929,0.105l1.746,0.06
	c1.159,0.011,2.386,0.021,3.506-0.063c2.285-0.134,4.393-0.505,6.023-1.228c1.575-0.741,2.78-1.896,3.635-3.707
	c0.178-0.473,0.394-0.922,0.552-1.417c0.136-0.51,0.305-1.001,0.423-1.521c0.105-0.519,0.212-1.032,0.316-1.538
	c0.081-0.575,0.157-1.143,0.237-1.701c0.279-2.121,0.424-4.216,0.508-6.169c0.092-1.956,0.136-3.799,0.348-5.457
	c0.2-1.66,0.631-3.113,1.202-4.17c0.569-1.057,1.159-1.772,1.584-2.224c0.432-0.441,0.664-0.678,0.664-0.678
	s-0.171,0.278-0.495,0.804c-0.311,0.521-0.709,1.331-1.002,2.39c-0.296,1.063-0.38,2.386-0.222,3.915
	c0.146,1.528,0.498,3.27,0.847,5.226c0.35,1.957,0.698,4.108,0.916,6.481c0.047,0.563,0.095,1.134,0.145,1.711
	c0.018,0.643,0.033,1.294,0.051,1.951c0.003,0.652-0.06,1.333-0.094,2.015c-0.056,0.688-0.198,1.406-0.305,2.125
	c-0.188,0.724-0.363,1.467-0.638,2.209c-0.312,0.737-0.591,1.506-1.058,2.213c-0.813,1.489-2.045,2.755-3.347,3.868
	c-2.692,2.11-5.693,3.262-8.522,4.112c-1.442,0.441-2.819,0.747-4.243,1.056l-2.135,0.412c-0.646,0.11-1.295,0.22-1.937,0.33
	l-1.023,0.169l-0.718,0.183c-0.463,0.132-0.962,0.204-1.381,0.364c-0.408,0.172-0.809,0.331-1.203,0.478
	c-0.389,0.156-0.672,0.397-1.005,0.565c-1.225,0.799-1.885,1.679-2.347,2.646c-0.092,0.275-0.233,0.471-0.313,0.757
	c-0.076,0.288-0.157,0.559-0.248,0.812c-0.106,0.622-0.255,1.165-0.298,1.823c-0.103,0.581-0.072,1.294-0.12,1.88
	c0.029,0.672,0.002,1.254,0.059,1.877c0.078,1.193,0.219,2.36,0.359,3.213c0.355,2.017,0.558,3.171,0.558,3.171L485.372,97.061z"/>
<path fill="#E27C3D" d="M450.069,76.603c0,0,0.204-1.325,0.56-3.644c0.218-1.291,0.532-2.794,1.006-4.606
	c0.527-1.813,1.182-3.889,2.266-6.098c1.072-2.198,2.529-4.474,4.327-6.526c1.785-2.07,3.899-3.867,6.118-5.378
	c0.552-0.399,1.112-0.766,1.687-1.1c0.571-0.338,1.138-0.713,1.722-1.018c0.58-0.307,1.163-0.619,1.75-0.93l0.219-0.117l0.056-0.027
	l0.027-0.017c0.102-0.066-0.11,0.077-0.078,0.057l0.098-0.051l0.396-0.202l0.796-0.404l0.799-0.408l0.629-0.342
	c0.424-0.229,0.868-0.447,1.274-0.715c0.412-0.258,0.864-0.514,1.209-0.781l0.563-0.393l0.479-0.391
	c0.358-0.264,0.557-0.514,0.851-0.768c0.196-0.25,0.446-0.492,0.595-0.756c0.342-0.515,0.602-1.157,0.756-2.082
	c0.149-0.92,0.194-2.076,0.265-3.269c0.029-0.604,0.067-1.216,0.117-1.843l0.037-0.464l0.013-0.341l0.01-0.055l0.021-0.104
	l0.039-0.211l0.165-0.851c0.45-2.154,1.583-3.504,2.717-4.466c0.285-0.212,0.566-0.423,0.849-0.631
	c0.273-0.176,0.539-0.323,0.81-0.482c0.544-0.335,1.025-0.531,1.525-0.793c1.943-0.912,3.621-1.654,5.111-2.552
	c0.76-0.425,1.432-0.905,2.098-1.346c0.621-0.489,1.257-0.919,1.787-1.397c0.528-0.479,1.05-0.915,1.498-1.35
	c0.436-0.455,0.835-0.871,1.197-1.247c0.731-0.753,1.207-1.428,1.583-1.856c0.362-0.439,0.553-0.674,0.553-0.674
	s-0.13,0.273-0.374,0.785c-0.262,0.503-0.571,1.29-1.108,2.216c-0.269,0.468-0.568,0.983-0.891,1.546
	c-0.344,0.555-0.759,1.123-1.187,1.754c-0.429,0.631-0.966,1.235-1.5,1.918c-0.578,0.63-1.179,1.327-1.868,1.975
	c-1.339,1.343-3.009,2.636-4.574,3.907c-0.354,0.315-0.788,0.637-1.081,0.954l-0.476,0.471l-0.354,0.457
	c-0.41,0.556-0.447,1.181-0.397,1.263l0.045,0.843l0.012,0.213l0.005,0.108l0.003,0.053c-0.003,0.072,0.017-0.522,0.01-0.259
	l0.007,0.024l0.064,0.393c0.084,0.517,0.184,1.056,0.293,1.61c0.205,1.122,0.464,2.309,0.606,3.757
	c0.138,1.442,0.086,3.2-0.398,4.934c-0.217,0.883-0.577,1.678-0.942,2.491c-0.403,0.726-0.819,1.515-1.287,2.132
	c-0.229,0.323-0.463,0.663-0.697,0.972l-0.726,0.868c-0.486,0.606-0.982,1.09-1.48,1.61c-0.488,0.529-1.024,1.001-1.556,1.487
	l-0.797,0.725l-0.678,0.587l-0.676,0.585l-0.335,0.291l-0.082,0.071c0.013-0.007-0.215,0.145-0.126,0.088l-0.019,0.016l-0.037,0.031
	l-0.145,0.132c-0.384,0.347-0.765,0.693-1.146,1.037c-0.382,0.337-0.703,0.705-1.051,1.047c-0.353,0.34-0.672,0.69-0.962,1.045
	c-1.229,1.389-2.156,2.765-2.765,4.066c-0.623,1.301-0.979,2.518-1.196,3.687c-0.222,1.159-0.256,2.334-0.289,3.394
	c0.01,1.082,0.054,2.121,0.127,2.93c0.179,1.885,0.278,2.962,0.278,2.962L450.069,76.603z"/>
<circle fill="#41ACB7" cx="450.935" cy="101.846" r="22.064"/>
<path fill="#E27C3D" d="M477.026,131.375c-19.161,7.004-40.37-2.848-47.371-22.009c-7.005-19.155,2.851-40.364,22.009-47.368
	c19.158-7.002,40.367,2.852,47.37,22.009C506.038,103.167,496.18,124.374,477.026,131.375z"/>
<path fill="#E27C3D" d="M431.721,84.393c0,0,0.091-0.296,0.267-0.85c0.188-0.575,0.467-1.42,0.818-2.493
	c0.74-2.15,1.847-5.227,3.567-8.814c0.858-1.792,1.879-3.71,3.111-5.683c1.239-1.968,2.688-3.998,4.47-5.938
	c1.775-1.935,3.897-3.8,6.417-5.242l1.474-0.829c0.368-0.203,0.782-0.472,1.162-0.741c0.752-0.541,1.378-1.125,1.836-1.722
	c0.449-0.602,0.744-1.201,0.849-1.908c0.121-0.697,0.039-1.528-0.229-2.41c-0.54-1.781-1.761-3.625-3.096-5.288
	c-0.357-0.438-0.653-0.788-1.078-1.28c-0.338-0.396-0.771-0.925-1.129-1.43c-0.698-1.012-1.405-2.145-1.62-3.605
	c-0.111-0.713-0.046-1.48,0.164-2.125c0.2-0.645,0.492-1.203,0.807-1.665c0.622-0.936,1.288-1.637,1.894-2.325
	c1.226-1.345,2.271-2.573,3.095-3.769c0.82-1.188,1.427-2.306,1.877-3.255c0.436-0.955,0.738-1.731,0.922-2.267
	c0.183-0.54,0.28-0.827,0.28-0.827s-0.048,0.299-0.14,0.864c-0.097,0.562-0.266,1.382-0.551,2.422
	c-0.297,1.032-0.725,2.275-1.37,3.648c-0.641,1.372-1.535,2.86-2.525,4.388c-0.479,0.764-0.999,1.553-1.337,2.32
	c-0.344,0.788-0.443,1.434-0.214,2.011c0.192,0.599,0.736,1.293,1.403,1.963c0.341,0.335,0.658,0.62,1.113,1.005
	c0.434,0.363,0.87,0.734,1.312,1.103c1.794,1.597,3.65,3.41,5.031,6.014c0.679,1.295,1.219,2.848,1.298,4.564
	c0.112,1.71-0.306,3.513-1.03,5.018c-0.728,1.515-1.704,2.786-2.734,3.864c-0.52,0.538-1.035,1.032-1.638,1.533l-0.771,0.635
	l-0.35,0.285l-0.043,0.035l-0.096,0.065l-0.016,0.016l-0.067,0.059l-0.137,0.116c-1.447,1.207-2.678,2.713-3.711,4.335
	c-1.042,1.614-1.885,3.351-2.586,5.06c-0.703,1.712-1.263,3.402-1.713,4.997c-0.91,3.187-1.405,5.962-1.724,7.907
	c-0.147,0.987-0.263,1.761-0.342,2.291c-0.076,0.552-0.116,0.846-0.116,0.846L431.721,84.393z"/>
<path fill="#E27C3D" d="M476.65,107.71c0,0,0.018,0,0.056,0.003c0.002,0.004-0.007,0.009-0.008,0.019
	c0.057,0.016,0.181,0.035,0.36,0.057c0.365,0.043,0.965,0.088,1.756,0.107c1.58,0.033,3.939-0.049,6.61-0.576
	c2.671-0.52,5.603-1.521,8.175-3.33c1.269-0.92,2.447-2.049,3.466-3.432c0.271-0.335,0.476-0.72,0.729-1.081l0.047-0.072
	l0.023-0.033c-0.052,0.129,0.081-0.191,0.071-0.169l0.015-0.022l0.112-0.188l0.218-0.376l0.44-0.75l0.442-0.752
	c0.141-0.245,0.29-0.5,0.495-0.814l1.133-1.75c1.569-2.228,3.319-4.381,5.762-6.155c0.61-0.435,1.224-0.854,1.934-1.188
	c0.35-0.168,0.672-0.358,1.036-0.493l1.094-0.383c1.462-0.447,2.975-0.625,4.322-0.541c1.368,0.045,2.581,0.296,3.656,0.55
	c0.93,0.23,1.841,0.458,2.725,0.679l0.372,0.044l0.186,0.018c0.069,0.011,0.045-0.002,0.072-0.002
	c0.064-0.013,0.125,0.011,0.218,0.03c0.127-0.033,0.259-0.06,0.4-0.081c0.141-0.031,0.281-0.123,0.434-0.174
	c0.596-0.301,1.238-0.792,1.852-1.378c1.228-1.146,2.449-2.368,3.651-3.249c1.206-0.895,2.383-1.475,3.356-1.866
	c0.992-0.355,1.773-0.571,2.324-0.65c0.537-0.1,0.824-0.152,0.824-0.152s-0.264,0.123-0.759,0.354
	c-0.5,0.206-1.193,0.608-2.012,1.158c-0.798,0.591-1.695,1.369-2.545,2.414c-0.861,1.055-1.618,2.342-2.597,3.877
	c-0.485,0.759-1.084,1.607-1.986,2.427c-0.243,0.195-0.471,0.41-0.755,0.588c-0.297,0.171-0.604,0.341-0.918,0.502
	c-0.374,0.139-0.791,0.257-1.206,0.353c-0.095,0.02-0.236,0.053-0.293,0.06l-0.182,0.025l-0.373,0.053l-0.188,0.025l-0.092,0.011
	l-0.048,0.009c-0.104-0.005,0.202,0.009-0.239-0.005h-0.026l-0.41,0.005c-0.271,0.003-0.545,0.004-0.82,0.01
	c-0.507,0.003-1.02,0.004-1.543,0.007c-0.999,0.018-1.925,0.079-2.725,0.281c-1.644,0.348-2.713,1.182-3.726,2.431
	c-0.996,1.242-1.841,3.014-2.508,4.828l-0.441,1.343c-0.073,0.199-0.153,0.473-0.234,0.761l-0.241,0.844l-0.239,0.834l-0.116,0.419
	l-0.064,0.207l-0.008,0.029c-0.015,0.04,0.112-0.267,0.053-0.121l-0.018,0.065l-0.042,0.127c-0.224,0.679-0.408,1.379-0.685,2.045
	c-1.022,2.697-2.507,5.241-4.265,7.439c-1.771,2.183-3.78,4.021-5.801,5.532c-2.023,1.518-4.065,2.688-5.985,3.646
	c-3.851,1.903-7.217,2.919-9.643,3.527c-1.218,0.301-2.202,0.496-2.923,0.617c-0.362,0.059-0.653,0.103-0.874,0.132
	c-0.146,0.012-0.254,0.022-0.328,0.031c-0.035,0.005-0.052,0.009-0.052,0.009L476.65,107.71z"/>
<path fill="#E27C3D" d="M459.045,85.55c0,0,0.074-0.394,0.213-1.135c0.034-0.184,0.071-0.392,0.112-0.618
	c0.05-0.323,0.103-0.673,0.161-1.056c0.12-0.764,0.25-1.65,0.447-2.591c0.097-0.473,0.195-0.971,0.302-1.494
	c0.126-0.543,0.261-1.112,0.4-1.705c0.261-1.159,0.673-2.522,1.089-3.909c0.937-2.854,2.263-6.158,4.316-9.577
	c2.021-3.421,4.921-6.854,8.319-9.618c3.399-2.771,7.254-4.927,11.108-6.354c0.966-0.387,1.925-0.641,2.894-0.955l1.45-0.439
	l0.045-0.014c-0.146,0.066,0.396-0.169-0.319,0.147l0.07-0.019l0.141-0.035l0.281-0.071l0.562-0.141
	c0.711-0.18,1.427-0.358,2.146-0.538c0.445-0.1,0.909-0.196,1.393-0.285c2.12-0.588,4.141-1.401,5.826-2.434
	c1.718-1.031,3.083-2.375,4.257-4.18c0.545-0.924,1.076-1.93,1.454-3.076c0.219-0.553,0.363-1.167,0.543-1.768l0.222-0.934
	l0.027-0.119l0.015-0.058c-0.006,0.304,0.015-0.442,0.015-0.379l0.011-0.036l0.065-0.275l0.133-0.55
	c0.112-0.458,0.226-0.916,0.336-1.372c0.152-0.579,0.316-1.148,0.487-1.701c0.198-0.461,0.396-0.922,0.593-1.379l0.298-0.669
	l0.356-0.636c0.241-0.413,0.48-0.825,0.72-1.232c0.26-0.392,0.543-0.764,0.814-1.135c0.519-0.756,1.161-1.401,1.759-2.04
	c2.47-2.513,5.366-4.065,8.049-4.859c0.654-0.25,1.339-0.332,1.975-0.486c0.322-0.064,0.636-0.14,0.946-0.192
	c0.313-0.03,0.623-0.061,0.93-0.09c0.609-0.049,1.192-0.126,1.761-0.134c0.562,0.014,1.107,0.026,1.641,0.038
	c2.094,0.106,3.844,0.424,5.237,0.796c1.409,0.294,2.449,0.736,3.166,0.965c0.711,0.249,1.089,0.379,1.089,0.379
	s-0.401,0.013-1.155,0.038c-0.751,0.041-1.837,0.003-3.202,0.227c-1.354,0.144-2.981,0.459-4.701,1.032
	c-0.422,0.151-0.859,0.306-1.308,0.467c-0.438,0.175-0.86,0.417-1.298,0.626c-0.215,0.108-0.436,0.216-0.655,0.326
	c-0.211,0.126-0.415,0.272-0.624,0.409c-0.403,0.292-0.853,0.511-1.224,0.866c-1.586,1.234-2.895,2.895-3.634,4.772
	c-0.167,0.481-0.374,0.925-0.46,1.432l-0.167,0.719l-0.083,0.737l-0.044,0.361l0.007,0.364l0.003,0.708
	c0.053,0.166,0.097,0.316,0.125,0.462c0.02,0.095,0.021,0.089,0.043,0.264l0.073,0.561l0.075,0.56l0.036,0.281l0.004,0.036
	c0,0.086,0.021-0.634,0.014-0.31l0.013,0.079l0.023,0.165l0.189,1.311c0.091,0.898,0.212,1.805,0.235,2.763
	c0.115,1.892-0.004,3.916-0.284,5.986c-0.622,4.134-2.248,8.52-4.754,12.202c-2.483,3.724-5.553,6.781-8.78,9.353
	c-0.881,0.653-1.776,1.301-2.683,1.938c-0.675,0.475-1.349,0.947-2.015,1.417l-0.474,0.333l-0.236,0.167l-0.118,0.084l-0.058,0.042
	c-0.735,0.325-0.217,0.101-0.384,0.175l-0.02,0.019l-0.598,0.522c-0.383,0.35-0.814,0.654-1.129,1.004
	c-1.379,1.35-2.14,2.69-2.532,3.791c-0.379,1.124-0.412,2.004-0.321,2.911c0.084,0.892,0.238,1.796,0.405,2.709
	c0.119,0.514,0.179,0.922,0.303,1.422c0.053,0.237,0.101,0.462,0.147,0.677c0.057,0.239,0.111,0.467,0.162,0.684
	c0.091,0.438,0.209,0.786,0.296,1.092c0.044,0.156,0.084,0.303,0.123,0.436c0.041,0.226,0.078,0.436,0.115,0.621
	c0.136,0.738,0.21,1.133,0.21,1.133L459.045,85.55z"/>
<path fill="#FFDB65" d="M474.691,126.971c-16.593,6.064-34.959-2.468-41.022-19.062c-6.064-16.586,2.469-34.953,19.06-41.019
	c16.592-6.063,34.957,2.47,41.022,19.059C499.814,102.541,491.281,120.908,474.691,126.971z"/>
<path fill="#FFDB65" d="M454.585,60.727c0.918,1.277-0.069,3.578-1.512,4.468c-1.442,0.892-8.549,3.934-10.694,9.813
	c3.48,6.315,12.119-0.38,12.942-0.726c0.825-0.347,5.046-7.582,5.046-7.582l-2.063-4.337L454.585,60.727z"/>
<path fill="#E27C3D" d="M480.746,45.565c0.021-0.012,0.062-0.022,0.243-0.115c0.176-0.085,0.441-0.225,0.782-0.413
	c0.677-0.375,1.651-0.948,2.755-1.721c1.103-0.772,2.342-1.739,3.476-2.905c1.131-1.16,2.148-2.533,2.646-4.018
	c0.134-0.372,0.212-0.748,0.269-1.13c0.018-0.086,0.028-0.208,0.039-0.333l0.028-0.366l0.062-0.729
	c0.086-0.976,0.16-1.937,0.284-2.894c0.126-0.953,0.265-1.892,0.562-2.788c0.283-0.892,0.735-1.716,1.302-2.321
	c0.556-0.625,1.213-0.969,1.756-1.27c0.287-0.123,0.552-0.235,0.799-0.341c0.25-0.084,0.481-0.159,0.69-0.229
	c0.41-0.143,0.749-0.203,0.969-0.268c0.227-0.055,0.345-0.086,0.345-0.086s-0.109,0.056-0.315,0.161
	c-0.202,0.114-0.515,0.246-0.875,0.473c-0.182,0.111-0.384,0.232-0.602,0.364c-0.204,0.148-0.426,0.31-0.662,0.48
	c-0.423,0.384-0.913,0.807-1.22,1.388c-0.324,0.568-0.512,1.238-0.574,1.995c-0.072,0.75-0.009,1.598,0.076,2.48
	c0.084,0.88,0.225,1.821,0.356,2.772c0.032,0.241,0.067,0.482,0.104,0.725l0.052,0.363c0.017,0.118,0.036,0.239,0.046,0.397
	c0.058,0.595,0.068,1.201,0.008,1.792c-0.104,1.189-0.408,2.331-0.812,3.382c-0.403,1.054-0.903,2.022-1.438,2.913
	c-1.075,1.778-2.274,3.248-3.353,4.447c-1.079,1.199-2.053,2.124-2.756,2.76c-0.354,0.319-0.643,0.566-0.849,0.738
	c-0.223,0.18-0.341,0.275-0.341,0.275L480.746,45.565z"/>
<path fill="#E27C3D" d="M502.578,66.312c0,0,0.11-0.189,0.315-0.544c0.195-0.312,0.475-0.742,0.838-1.248
	c0.363-0.507,0.807-1.103,1.341-1.748c0.528-0.65,1.141-1.358,1.841-2.089c0.692-0.739,1.47-1.5,2.321-2.266
	c0.851-0.769,1.778-1.534,2.767-2.276c0.99-0.743,2.041-1.461,3.14-2.125c0.535-0.349,1.116-0.646,1.679-0.962l0.421-0.234
	l0.106-0.057l0.056-0.029l0.013-0.007c0.017-0.013-0.109,0.081-0.05,0.038l0.024-0.013l0.197-0.104l0.792-0.425
	c0.562-0.291,0.968-0.539,1.42-0.798c0.456-0.241,0.873-0.562,1.315-0.851c0.425-0.297,0.812-0.617,1.201-0.936
	c0.349-0.336,0.735-0.661,1.023-1.024c0.334-0.349,0.576-0.73,0.848-1.107c0.212-0.396,0.471-0.78,0.614-1.203
	c0.371-0.816,0.539-1.692,0.672-2.523c0.209-1.678,0.146-3.178,0.097-4.211c-0.056-1.038-0.103-1.635-0.103-1.635
	s0.218,0.556,0.576,1.541c0.351,0.99,0.86,2.404,1.189,4.27c0.133,0.936,0.247,1.998,0.115,3.154
	c-0.03,0.583-0.185,1.165-0.312,1.775c-0.185,0.586-0.368,1.212-0.65,1.785c-0.246,0.613-0.582,1.156-0.907,1.737
	c-0.353,0.544-0.724,1.101-1.121,1.619c-0.413,0.501-0.804,1.036-1.274,1.519c-0.456,0.493-0.943,1.018-1.344,1.408l-0.633,0.632
	l-0.157,0.16l-0.021,0.021c0.054-0.037-0.082,0.06-0.07,0.055l-0.01,0.007l-0.036,0.038l-0.072,0.074l-0.282,0.295
	c-0.375,0.396-0.761,0.764-1.104,1.178c-0.709,0.796-1.36,1.611-1.947,2.425c-0.59,0.81-1.119,1.614-1.583,2.396
	c-0.465,0.778-0.869,1.527-1.211,2.229c-0.348,0.696-0.631,1.348-0.858,1.919c-0.236,0.572-0.408,1.071-0.538,1.472
	c-0.133,0.404-0.211,0.701-0.254,0.888c-0.021,0.086-0.006,0.098-0.011,0.132c-0.019,0.064-0.023,0.097-0.023,0.097L502.578,66.312z
	"/>
<path fill="#E27C3D" d="M506.899,63.058l-7.82-2.488c0,0-6.042,4.147-4.504,6.042c1.539,1.897,3.318,6.282,4.621,6.4
	c1.304,0.118,10.903-2.251,10.903-2.251l-0.356-8.177L506.899,63.058z"/>
<path fill="#FFDB65" d="M470.287,82.453c0,0,0.036-0.194,0.103-0.557c0.018-0.091,0.034-0.191,0.057-0.303
	c0.026-0.158,0.05-0.33,0.078-0.517c0.058-0.375,0.122-0.812,0.219-1.27c0.046-0.234,0.097-0.479,0.148-0.735
	c0.062-0.266,0.128-0.546,0.198-0.837c0.126-0.567,0.327-1.236,0.531-1.918c0.46-1.399,1.108-3.019,2.119-4.697
	c0.99-1.676,2.412-3.36,4.079-4.716c1.669-1.358,3.559-2.417,5.449-3.117c0.474-0.19,0.942-0.315,1.419-0.467l0.711-0.216
	l0.022-0.006c-0.073,0.031,0.195-0.083-0.156,0.071l0.034-0.008l0.067-0.018l0.141-0.034l0.274-0.071
	c0.35-0.087,0.698-0.175,1.054-0.264c0.218-0.05,0.444-0.095,0.682-0.138c1.04-0.29,2.03-0.688,2.856-1.193
	c0.842-0.506,1.515-1.166,2.089-2.052c0.268-0.452,0.526-0.944,0.713-1.507c0.108-0.271,0.181-0.572,0.265-0.868l0.111-0.456
	l0.014-0.059l0.006-0.029c-0.002,0.148,0.006-0.218,0.007-0.185l0.006-0.018l0.031-0.135l0.064-0.271
	c0.056-0.224,0.112-0.45,0.167-0.673c0.075-0.282,0.156-0.562,0.237-0.832c0.098-0.229,0.195-0.453,0.29-0.678l0.147-0.329
	l0.176-0.311c0.116-0.204,0.234-0.404,0.351-0.605c0.131-0.193,0.271-0.374,0.401-0.557c0.256-0.37,0.569-0.687,0.861-1
	c1.213-1.231,2.634-1.994,3.948-2.383c0.322-0.123,0.66-0.161,0.97-0.239c0.157-0.032,0.31-0.067,0.464-0.093
	c0.154-0.014,0.305-0.031,0.456-0.045c0.299-0.023,0.587-0.062,0.863-0.065c0.277,0.007,0.543,0.013,0.804,0.018
	c1.028,0.053,1.887,0.208,2.569,0.392c0.689,0.144,1.2,0.361,1.553,0.472c0.349,0.123,0.537,0.187,0.537,0.187
	s-0.198,0.006-0.569,0.019c-0.367,0.019-0.899,0.002-1.568,0.109c-0.666,0.071-1.464,0.228-2.309,0.507
	c-0.206,0.072-0.42,0.15-0.642,0.229c-0.214,0.086-0.418,0.206-0.637,0.308c-0.104,0.051-0.212,0.107-0.321,0.159
	c-0.102,0.063-0.202,0.134-0.304,0.202c-0.198,0.143-0.42,0.251-0.601,0.424c-0.777,0.605-1.42,1.42-1.783,2.34
	c-0.082,0.237-0.183,0.455-0.223,0.703l-0.084,0.353l-0.041,0.361l-0.021,0.177l0.003,0.18l0.001,0.347
	c0.025,0.082,0.046,0.156,0.062,0.229c0.009,0.045,0.01,0.042,0.02,0.127l0.036,0.276l0.037,0.275l0.018,0.136l0.003,0.019
	c0,0.042,0.01-0.312,0.007-0.153l0.007,0.042l0.012,0.078l0.091,0.644c0.045,0.441,0.105,0.886,0.116,1.355
	c0.056,0.927,0,1.921-0.141,2.936c-0.305,2.026-1.103,4.178-2.329,5.985c-1.22,1.828-2.726,3.327-4.308,4.588
	c-0.432,0.32-0.873,0.637-1.316,0.95c-0.33,0.232-0.661,0.464-0.988,0.694l-0.231,0.165l-0.115,0.083l-0.058,0.041l-0.03,0.021
	c-0.36,0.16-0.106,0.048-0.187,0.085l-0.01,0.01l-0.293,0.254c-0.188,0.174-0.401,0.321-0.556,0.495
	c-0.676,0.66-1.051,1.318-1.241,1.858c-0.186,0.551-0.201,0.982-0.156,1.427c0.04,0.438,0.115,0.882,0.197,1.329
	c0.06,0.253,0.089,0.452,0.148,0.698c0.025,0.117,0.051,0.227,0.073,0.332c0.027,0.117,0.054,0.229,0.079,0.334
	c0.045,0.215,0.104,0.388,0.146,0.537c0.021,0.077,0.043,0.147,0.059,0.214c0.02,0.11,0.04,0.213,0.056,0.304
	c0.068,0.364,0.104,0.555,0.104,0.555L470.287,82.453z"/>
<path fill="#FFDB65" d="M464.442,66.832c0,0,5.252-5.175,12.109-4.876c6.858,0.297,10.414,1.55,13.457-0.31
	c-3.193,6.307-10.391,9.592-10.391,9.592s-5.437,3.577-5.742,3.475c-0.306-0.104-7.599-4.946-7.599-4.946L464.442,66.832z"/>
<path fill="#FFDB65" d="M492.791,86.585c0,0,5.02-4.406,4.801-10.807c-0.219-6.4,1.757-11.49,2.098-14.769
	c-5.515,2.438-15.696,9.79-15.696,9.79l-5.274,6.299c0,0,5.333,6.158,5.395,6.298C484.172,83.535,492.791,86.585,492.791,86.585z"/>
<path fill="#E27C3D" d="M467.01,26.909c0.186-0.275,0.343-0.559,0.525-0.789c0.192-0.223,0.355-0.452,0.531-0.626
	c0.183-0.176,0.345-0.333,0.486-0.47c0.148-0.132,0.285-0.227,0.392-0.313c0.223-0.17,0.341-0.261,0.341-0.261
	s-0.143,0.045-0.406,0.133c-0.131,0.047-0.301,0.094-0.491,0.171c-0.19,0.086-0.404,0.185-0.648,0.297
	c-0.243,0.114-0.486,0.285-0.771,0.452c-0.279,0.175-0.55,0.412-0.862,0.645c-0.56,0.523-1.198,1.168-1.711,1.995
	c-0.549,0.813-1.01,1.78-1.384,2.838c-0.387,1.061-0.644,2.21-0.845,3.411c-0.099,0.602-0.157,1.209-0.228,1.833
	c-0.034,0.617-0.095,1.239-0.101,1.887l-0.006,0.983v0.497l0.008,0.444l0.018,0.887l0.007,0.223l0.004,0.111v0.028v0.012
	c-0.003-0.007,0.026,0.139,0.012,0.082l-0.003,0.043l-0.037,0.327c-0.059,0.435-0.038,0.844-0.184,1.255
	c-0.107,0.405-0.18,0.793-0.37,1.175l-0.223,0.557c-0.09,0.183-0.205,0.364-0.301,0.541c-0.103,0.178-0.188,0.352-0.292,0.521
	c-0.118,0.171-0.236,0.339-0.355,0.507c-0.206,0.329-0.484,0.645-0.74,0.949c-0.235,0.306-0.539,0.591-0.804,0.869
	c-0.117,0.121-0.243,0.227-0.364,0.342c-0.15,2.718-0.374,6.638-0.4,6.723c-0.023,0.069-0.899,0.473-1.726,0.833l4.637,6.211
	c0,0,0.026-0.028,0.076-0.081c0.077-0.075,0.192-0.188,0.343-0.334c0.299-0.298,0.629-0.655,1.048-1.146
	c0.418-0.486,0.898-1.074,1.414-1.778c0.523-0.7,1.079-1.508,1.642-2.43c0.562-0.917,1.13-1.948,1.646-3.101
	c0.255-0.583,0.524-1.158,0.737-1.81c0.223-0.634,0.451-1.276,0.606-1.981c0.084-0.343,0.169-0.689,0.254-1.039
	c0.067-0.357,0.112-0.73,0.169-1.094c0.045-0.371,0.104-0.73,0.133-1.105c0.007-0.377,0.016-0.758,0.025-1.144
	c0.042-0.751-0.061-1.526-0.158-2.287c-0.059-0.759-0.312-1.5-0.505-2.228l-0.157-0.538l-0.021-0.069
	c-0.012-0.064,0.015,0.072,0.012,0.053l-0.007-0.013l-0.01-0.026l-0.037-0.103l-0.082-0.208l-0.312-0.831l-0.155-0.416l-0.125-0.364
	l-0.257-0.732c-0.17-0.491-0.298-1.011-0.448-1.516c-0.116-0.501-0.245-1.008-0.334-1.503c-0.173-0.989-0.295-1.962-0.286-2.875
	c-0.001-0.914,0.083-1.785,0.284-2.559C466.384,28.18,466.701,27.511,467.01,26.909z"/>
<path fill="#FFDB65" d="M460.153,69.691c0,0,0.085-0.542,0.23-1.49c0.088-0.529,0.218-1.142,0.412-1.884
	c0.213-0.742,0.481-1.588,0.924-2.494c0.44-0.899,1.035-1.829,1.77-2.667c0.729-0.847,1.595-1.581,2.501-2.199
	c0.225-0.161,0.455-0.312,0.69-0.45c0.233-0.138,0.464-0.29,0.702-0.415c0.238-0.127,0.477-0.253,0.716-0.381l0.091-0.047
	l0.022-0.011l0.01-0.007c0.043-0.026-0.044,0.032-0.031,0.025l0.039-0.022l0.164-0.081l0.324-0.167l0.327-0.166l0.256-0.141
	c0.175-0.093,0.356-0.181,0.521-0.291c0.169-0.106,0.355-0.211,0.494-0.319l0.231-0.162l0.195-0.16
	c0.148-0.108,0.229-0.209,0.347-0.314c0.078-0.102,0.184-0.201,0.243-0.308c0.141-0.211,0.247-0.475,0.31-0.852
	c0.061-0.376,0.08-0.848,0.107-1.336c0.014-0.247,0.028-0.496,0.049-0.753l0.014-0.189l0.008-0.141l0.004-0.022l0.006-0.042
	l0.017-0.086l0.068-0.348c0.186-0.879,0.648-1.432,1.111-1.827c0.114-0.085,0.231-0.17,0.346-0.256
	c0.112-0.073,0.221-0.132,0.332-0.198c0.224-0.137,0.417-0.218,0.623-0.326c0.795-0.369,1.481-0.674,2.091-1.042
	c0.309-0.174,0.584-0.371,0.857-0.55c0.252-0.2,0.514-0.375,0.729-0.57c0.215-0.197,0.429-0.375,0.612-0.554
	c0.178-0.184,0.342-0.354,0.49-0.509c0.299-0.308,0.493-0.585,0.646-0.758c0.147-0.18,0.227-0.276,0.227-0.276
	s-0.054,0.11-0.154,0.32c-0.106,0.206-0.231,0.528-0.453,0.906c-0.106,0.191-0.231,0.403-0.362,0.632
	c-0.14,0.227-0.31,0.459-0.484,0.718c-0.175,0.257-0.395,0.506-0.613,0.782c-0.237,0.258-0.482,0.543-0.765,0.808
	c-0.547,0.548-1.229,1.078-1.869,1.598c-0.145,0.13-0.321,0.26-0.443,0.391l-0.194,0.192l-0.145,0.186
	c-0.167,0.23-0.182,0.482-0.162,0.519l0.019,0.342l0.006,0.088l0.001,0.044l0.001,0.023c0,0.029,0.006-0.215,0.004-0.107
	l0.002,0.011l0.03,0.159c0.031,0.213,0.072,0.432,0.117,0.657c0.084,0.461,0.191,0.945,0.248,1.539
	c0.056,0.588,0.035,1.305-0.162,2.015c-0.09,0.36-0.236,0.687-0.385,1.018c-0.165,0.296-0.335,0.619-0.527,0.872
	c-0.095,0.132-0.189,0.272-0.286,0.397l-0.296,0.354c-0.197,0.248-0.401,0.446-0.605,0.659c-0.2,0.215-0.418,0.409-0.634,0.608
	l-0.327,0.296l-0.278,0.239l-0.275,0.238l-0.138,0.12l-0.033,0.028c0.007-0.002-0.086,0.06-0.052,0.037l-0.008,0.006l-0.013,0.011
	l-0.06,0.055c-0.158,0.142-0.314,0.283-0.47,0.424c-0.156,0.138-0.287,0.287-0.429,0.428c-0.145,0.139-0.276,0.282-0.392,0.428
	c-0.506,0.567-0.884,1.13-1.133,1.662c-0.253,0.532-0.399,1.03-0.49,1.506c-0.089,0.474-0.104,0.956-0.117,1.389
	c0.005,0.443,0.021,0.868,0.051,1.198c0.074,0.77,0.115,1.209,0.115,1.209L460.153,69.691z"/>
<path fill="#FFDB65" d="M443.797,87.844c0,0,0.058-0.176,0.162-0.509c0.112-0.344,0.277-0.847,0.487-1.49
	c0.445-1.289,1.106-3.128,2.135-5.273c0.515-1.072,1.123-2.22,1.861-3.399c0.743-1.178,1.606-2.393,2.676-3.553
	c1.06-1.158,2.328-2.273,3.837-3.137l0.882-0.493c0.219-0.122,0.468-0.283,0.694-0.445c0.451-0.32,0.825-0.672,1.1-1.028
	c0.269-0.361,0.443-0.718,0.507-1.141c0.074-0.417,0.024-0.915-0.14-1.443c-0.319-1.064-1.053-2.168-1.85-3.163
	c-0.214-0.262-0.392-0.472-0.646-0.765c-0.203-0.239-0.459-0.554-0.673-0.856c-0.42-0.606-0.842-1.282-0.969-2.158
	c-0.069-0.424-0.03-0.885,0.096-1.271c0.12-0.384,0.295-0.719,0.481-0.996c0.376-0.561,0.772-0.979,1.136-1.39
	c0.732-0.804,1.356-1.54,1.851-2.255c0.49-0.712,0.852-1.38,1.123-1.948c0.262-0.57,0.44-1.034,0.55-1.355
	c0.111-0.322,0.169-0.494,0.169-0.494s-0.027,0.179-0.086,0.516c-0.054,0.337-0.158,0.828-0.326,1.449
	c-0.179,0.618-0.435,1.362-0.82,2.183c-0.384,0.822-0.919,1.711-1.511,2.626c-0.29,0.456-0.598,0.927-0.802,1.388
	c-0.203,0.471-0.265,0.855-0.127,1.203c0.114,0.359,0.439,0.773,0.841,1.174c0.202,0.2,0.391,0.37,0.664,0.601
	c0.258,0.218,0.523,0.439,0.786,0.659c1.072,0.958,2.183,2.04,3.008,3.6c0.406,0.774,0.731,1.702,0.776,2.729
	c0.07,1.025-0.181,2.103-0.613,3.001c-0.438,0.909-1.021,1.669-1.638,2.314c-0.31,0.321-0.619,0.616-0.981,0.918l-0.461,0.379
	l-0.205,0.169l-0.028,0.021l-0.056,0.039l-0.011,0.01l-0.042,0.035l-0.08,0.069c-0.866,0.723-1.601,1.624-2.22,2.595
	c-0.622,0.965-1.127,2.004-1.548,3.026c-0.42,1.024-0.755,2.035-1.024,2.988c-0.543,1.906-0.843,3.568-1.032,4.732
	c-0.086,0.59-0.153,1.055-0.203,1.37c-0.043,0.33-0.07,0.506-0.07,0.506L443.797,87.844z"/>
<path fill="#E27C3D" d="M496.694,93.219c0,0,0.008-0.035,0.023-0.101c0.021-0.106,0.048-0.263,0.087-0.466
	c0.039-0.237,0.091-0.42,0.153-0.67c0.058-0.251,0.136-0.526,0.227-0.824c0.176-0.608,0.417-1.318,0.738-2.121
	c0.317-0.8,0.727-1.689,1.248-2.632c0.521-0.94,1.158-1.939,1.962-2.925c0.424-0.488,0.809-0.995,1.327-1.455
	c0.497-0.468,0.981-0.947,1.584-1.351c0.287-0.206,0.579-0.413,0.872-0.62c0.287-0.208,0.631-0.356,0.946-0.531
	c0.324-0.164,0.647-0.329,0.973-0.494c0.331-0.148,0.684-0.25,1.026-0.372c0.343-0.108,0.688-0.219,1.033-0.332
	c0.347-0.091,0.701-0.132,1.049-0.196c0.7-0.118,1.392-0.237,2.072-0.205h1.013l0.501,0.005c0.146,0.004,0.281,0.023,0.421,0.036
	c0.555,0.054,1.107,0.106,1.656,0.16c1.093,0.102,2.167,0.202,3.208,0.3c1.039,0.099,2.036,0.176,2.979,0.239
	c0.954,0.08,1.82,0.087,2.65,0.122c0.405,0.001,0.784-0.019,1.158-0.027c0.374,0,0.718-0.034,1.04-0.082
	c0.66-0.055,1.211-0.202,1.678-0.322c0.47-0.111,0.812-0.281,1.062-0.358c0.251-0.091,0.379-0.14,0.379-0.14
	s-0.108,0.086-0.314,0.25c-0.21,0.152-0.496,0.429-0.917,0.689c-0.421,0.271-0.94,0.609-1.592,0.887
	c-0.321,0.161-0.669,0.315-1.04,0.439c-0.37,0.131-0.767,0.286-1.179,0.419c-0.818,0.235-1.729,0.523-2.668,0.748
	c-0.95,0.245-1.949,0.493-2.979,0.727c-1.029,0.235-2.092,0.479-3.172,0.726c-0.538,0.123-1.079,0.245-1.623,0.368
	c-0.135,0.031-0.277,0.06-0.405,0.095l-0.318,0.115l-0.63,0.218c-0.431,0.111-0.793,0.339-1.148,0.535
	c-0.175,0.104-0.362,0.181-0.522,0.293l-0.45,0.368c-0.144,0.121-0.299,0.217-0.429,0.346l-0.36,0.411
	c-0.113,0.138-0.248,0.237-0.343,0.394c-0.094,0.146-0.188,0.294-0.284,0.438c-0.203,0.257-0.336,0.596-0.486,0.887
	c-0.163,0.271-0.25,0.629-0.368,0.92c-0.213,0.619-0.355,1.249-0.452,1.845c-0.096,0.596-0.146,1.161-0.163,1.664
	c-0.021,0.501-0.016,0.944,0.012,1.29c0.007,0.178,0.018,0.333,0.035,0.456c0.015,0.122,0.021,0.255,0.043,0.276
	c0.017,0.056,0.029,0.051,0.036,0.123c0.005,0.069,0.008,0.103,0.008,0.103L496.694,93.219z"/>
<path fill="#FFDB65" d="M486.88,104.032c0,0,0.008,0,0.025,0.004c0.003,0-0.004,0.003-0.006,0.007
	c0.026,0.008,0.081,0.017,0.161,0.026c0.163,0.017,0.428,0.038,0.781,0.048c0.702,0.015,1.752-0.022,2.94-0.256
	c1.188-0.232,2.49-0.677,3.633-1.481c0.564-0.408,1.089-0.91,1.542-1.523c0.121-0.15,0.211-0.321,0.323-0.482l0.022-0.031
	l0.007-0.015c-0.021,0.056,0.039-0.086,0.035-0.077l0.007-0.009l0.049-0.084l0.097-0.167l0.195-0.334l0.196-0.334
	c0.065-0.107,0.13-0.222,0.223-0.361l0.501-0.778c0.699-0.991,1.478-1.95,2.563-2.738c0.273-0.193,0.544-0.379,0.86-0.528
	c0.155-0.075,0.296-0.158,0.461-0.217l0.485-0.172c0.648-0.198,1.32-0.28,1.92-0.241c0.609,0.021,1.149,0.133,1.626,0.245
	c0.415,0.103,0.819,0.205,1.213,0.302l0.165,0.02l0.081,0.008c0.031,0.007,0.021,0,0.032-0.001c0.03-0.003,0.055,0.006,0.1,0.014
	c0.056-0.014,0.115-0.025,0.176-0.035c0.064-0.015,0.124-0.054,0.194-0.077c0.264-0.134,0.549-0.354,0.821-0.614
	c0.545-0.509,1.089-1.053,1.623-1.443c0.538-0.399,1.061-0.657,1.493-0.831c0.441-0.159,0.79-0.253,1.036-0.288
	c0.236-0.044,0.364-0.071,0.364-0.071s-0.117,0.056-0.338,0.16c-0.223,0.09-0.531,0.27-0.893,0.514
	c-0.355,0.262-0.757,0.609-1.132,1.074c-0.384,0.467-0.72,1.041-1.156,1.723c-0.216,0.337-0.481,0.714-0.883,1.08
	c-0.106,0.087-0.207,0.184-0.337,0.261c-0.129,0.077-0.268,0.151-0.408,0.223c-0.168,0.063-0.351,0.115-0.535,0.157
	c-0.041,0.009-0.105,0.023-0.128,0.027l-0.083,0.012l-0.165,0.022l-0.083,0.011l-0.041,0.005l-0.022,0.004
	c-0.045-0.003,0.091,0.005-0.106-0.003l-0.013,0l-0.179,0.004c-0.122,0.001-0.242,0.002-0.367,0.005
	c-0.225,0-0.452,0.001-0.685,0.002c-0.443,0.008-0.857,0.036-1.212,0.125c-0.729,0.156-1.207,0.528-1.657,1.083
	c-0.443,0.553-0.817,1.34-1.113,2.146l-0.197,0.599c-0.033,0.086-0.067,0.208-0.104,0.336l-0.106,0.375l-0.107,0.372l-0.053,0.187
	l-0.027,0.092l-0.003,0.012c-0.004,0.019,0.049-0.118,0.024-0.052l-0.011,0.027l-0.016,0.058c-0.1,0.302-0.183,0.612-0.307,0.91
	c-0.454,1.198-1.113,2.33-1.896,3.307c-0.788,0.969-1.681,1.79-2.579,2.459c-0.901,0.672-1.805,1.196-2.66,1.62
	c-1.713,0.848-3.209,1.297-4.288,1.57c-0.543,0.134-0.979,0.22-1.3,0.274c-0.161,0.025-0.291,0.044-0.389,0.057
	c-0.064,0.007-0.112,0.012-0.146,0.017c-0.015,0.002-0.022,0.003-0.022,0.003L486.88,104.032z"/>
<path fill="#FFDB65" d="M494.563,105.012c0,0,4.919-5.655,4.515-10.615c-0.403-4.961-0.117-5.474,0.845-7.254
	c0.964-1.78,1.903-4.014,1.784-6.548c-4.277,4.043-8.497,5.877-8.497,5.877s-4.011,3.622-3.938,3.712
	c0.072,0.089,2.318,6.664,2.318,6.664l0.684,4.046L494.563,105.012z"/>
<path fill="#FFDB65" d="M479.37,97.786c0,0,0.007-0.152,0.02-0.434c0.006-0.142,0.016-0.317,0.026-0.523
	c0.014-0.259,0.031-0.553,0.051-0.883c0.054-0.658,0.129-1.399,0.289-2.307c0.067-0.445,0.196-0.943,0.31-1.45
	c0.161-0.528,0.289-1.062,0.536-1.648c0.202-0.573,0.512-1.182,0.837-1.792c0.193-0.309,0.395-0.615,0.603-0.92
	c0.206-0.306,0.482-0.601,0.735-0.898c1.062-1.175,2.55-2.114,4.078-2.575c0.38-0.102,0.768-0.232,1.146-0.29
	c0.376-0.055,0.756-0.104,1.133-0.148c0.374-0.038,0.733-0.023,1.099-0.028l0.55-0.002l0.033,0.002
	c-0.074,0.003-0.014,0-0.025,0.002h0.012l0.058,0.003l0.11,0.006l0.224,0.013c0.292,0.016,0.589,0.032,0.886,0.047l0.8,0.027
	c0.531,0.007,1.095,0.011,1.608-0.027c1.049-0.063,2.019-0.232,2.767-0.562c0.722-0.342,1.273-0.871,1.666-1.701
	c0.08-0.217,0.181-0.425,0.251-0.65c0.064-0.235,0.142-0.459,0.196-0.701c0.05-0.235,0.097-0.471,0.143-0.705
	c0.038-0.262,0.076-0.523,0.111-0.78c0.128-0.973,0.194-1.935,0.234-2.83c0.042-0.898,0.063-1.744,0.159-2.506
	c0.09-0.761,0.287-1.427,0.55-1.912c0.263-0.488,0.532-0.814,0.729-1.022c0.196-0.202,0.303-0.311,0.303-0.311
	s-0.079,0.128-0.227,0.37c-0.143,0.24-0.327,0.61-0.46,1.097c-0.135,0.488-0.174,1.095-0.104,1.795
	c0.069,0.702,0.229,1.5,0.389,2.398c0.161,0.899,0.32,1.886,0.422,2.973c0.021,0.261,0.045,0.521,0.067,0.787
	c0.007,0.296,0.015,0.593,0.022,0.895c0,0.299-0.029,0.611-0.042,0.925c-0.026,0.316-0.094,0.643-0.142,0.975
	c-0.084,0.332-0.167,0.674-0.293,1.013c-0.144,0.342-0.27,0.692-0.484,1.017c-0.373,0.685-0.938,1.264-1.536,1.774
	c-1.234,0.969-2.612,1.497-3.912,1.888c-0.661,0.203-1.294,0.344-1.945,0.484l-0.979,0.188c-0.297,0.051-0.597,0.103-0.89,0.154
	l-0.47,0.078l-0.328,0.083c-0.215,0.061-0.442,0.095-0.634,0.167c-0.19,0.077-0.373,0.151-0.553,0.221
	c-0.18,0.07-0.309,0.18-0.462,0.258c-0.562,0.367-0.862,0.769-1.076,1.215c-0.044,0.125-0.107,0.215-0.143,0.346
	c-0.036,0.132-0.074,0.257-0.117,0.375c-0.047,0.284-0.114,0.534-0.134,0.834c-0.049,0.268-0.033,0.596-0.057,0.863
	c0.015,0.309,0.001,0.576,0.028,0.864c0.034,0.546,0.101,1.081,0.163,1.472c0.164,0.925,0.256,1.455,0.256,1.455L479.37,97.786z"/>
<path fill="#3E3E3E" d="M462.722,110.699c5.432,0,10.078,3.333,12.021,8.064l2.105-6.745l-3.69-3.688l-9.372-2.46l-5.681,0.169
	l-4.072,1.612l-2.587,4.198l-2.119,3.689l1.36,3.271C452.615,114.056,457.272,110.699,462.722,110.699z"/>
<path fill="#5E5F5F" d="M481.237,63.749l-13.301,1.67l-29.238,21.031l3.334,32.444l8.671-0.03v-0.005
	c0-6.638,5.382-12.021,12.019-12.021c6.611,0,11.973,5.34,12.016,11.939l3.972-0.012l16.928-38.215l-5.577-9.927L481.237,63.749z"/>
<polygon fill="#7D7D7D" points="490.06,70.625 478.709,118.767 495.637,80.552 "/>
<polygon fill="#7D7D7D" points="481.237,63.749 442.032,118.895 438.698,86.451 467.937,65.419 "/>
<circle fill="#505050" cx="456.083" cy="85.944" r="6.316"/>
<path fill="#5E5F5F" d="M453.613,83.267c-1.366,0-2.626,0.437-3.659,1.172c-0.118,0.483-0.188,0.985-0.188,1.505
	c0,3.489,2.829,6.316,6.317,6.316c1.364,0,2.623-0.437,3.654-1.173c0.119-0.481,0.189-0.983,0.189-1.505
	C459.928,86.096,457.101,83.267,453.613,83.267z"/>
<circle fill="#505050" cx="458.654" cy="96.907" r="3.474"/>
<path fill="#5E5F5F" d="M457.296,95.434c-0.752,0-1.443,0.24-2.013,0.645c-0.062,0.266-0.104,0.543-0.104,0.828
	c0,1.918,1.556,3.474,3.477,3.474c0.749,0,1.444-0.24,2.009-0.644c0.066-0.266,0.106-0.544,0.106-0.829
	C460.771,96.99,459.214,95.434,457.296,95.434z"/>
<circle fill="#505050" cx="486.444" cy="84.161" r="3.917"/>
<path fill="#3A3B3B" d="M484.911,82.5c-0.845,0-1.626,0.27-2.267,0.729c-0.076,0.298-0.118,0.608-0.118,0.932
	c0,2.164,1.754,3.918,3.917,3.918c0.847,0,1.629-0.272,2.27-0.731c0.072-0.299,0.115-0.608,0.115-0.93
	C488.828,84.254,487.074,82.5,484.911,82.5z"/>
<circle fill="#505050" cx="481.183" cy="88.759" r="1.861"/>
<path fill="#3A3B3B" d="M480.454,87.969c-0.399,0-0.771,0.128-1.074,0.346c-0.037,0.143-0.058,0.289-0.058,0.443
	c0,1.027,0.834,1.86,1.859,1.86c0.403,0,0.774-0.128,1.077-0.346c0.034-0.143,0.055-0.289,0.055-0.442
	C482.313,88.803,481.482,87.969,480.454,87.969z"/>
</svg>
