<svg xmlns="http://www.w3.org/2000/svg" class="slds-illustration__svg" viewBox="0 0 600 400" id="no-results">
    <g fill="none" fill-rule="evenodd">
        <g transform="translate(75.000000, 73.000000)">
            <g id="BackgroundLightBlue" transform="translate(0.000000, 156.000000)">
                <path d="M13,40.5 L143,40.5 M0,40.5 L450,40.5" id="Line" stroke="#C2E8FF" stroke-width="3" stroke-linecap="round"></path>
                <path d="M437.721708,42.0004545 L272.392543,42.0004545 C272.326661,41.2639487 272.293,40.5180069 272.293,39.7640909 C272.293,26.2682599 283.079653,15.3277273 296.385664,15.3277273 C300.042202,15.3277273 303.508485,16.1539227 306.61295,17.6322977 C311.864203,7.19924616 322.564428,0.055 334.910597,0.055 C348.356626,0.055 359.850389,8.52883452 364.479249,20.496159 C366.193276,19.6318947 368.125406,19.1459091 370.169448,19.1459091 C372.504783,19.1459091 374.694037,19.7802784 376.578841,20.8883889 C381.290403,14.2813569 388.956488,9.98227273 397.613028,9.98227273 C410.336441,9.98227273 420.920152,19.2696805 423.127755,31.5221412 C423.780388,31.4181046 424.449394,31.3640909 425.130838,31.3640909 C431.410096,31.3640909 436.633238,35.9503699 437.721708,42.0004545 L437.721708,42.0004545 Z" id="Hill2" fill="#C2E8FF" fill-rule="nonzero"></path>
                <path d="M153.962139,41.9644486 C151.225735,35.5143094 144.944776,31.0029106 137.633892,31.0029106 C135.619663,31.0029106 133.683612,31.3453541 131.878328,31.9764392 C128.451481,26.6704266 122.567406,23.1698545 115.883789,23.1698545 C109.491267,23.1698545 103.830159,26.3721423 100.350851,31.2935668 C98.9589956,30.468161 97.3423157,29.9956341 95.6177606,29.9956341 C94.1083143,29.9956341 92.6815102,30.3576334 91.4157672,31.0014039 C87.9975328,22.0872221 79.5098304,15.7752599 69.5804557,15.7752599 C60.4632836,15.7752599 52.5615782,21.0968437 48.6837305,28.8681823 C46.3912034,27.766973 43.8314865,27.1515593 41.1312741,27.1515593 C32.4373504,27.1515593 25.1998844,33.5312998 23.6476214,41.9644491 L153.962142,41.9644491 L153.962139,41.9644486 Z" id="Hill1" fill="#C2E8FF" fill-rule="nonzero"></path>
            </g>
            <g id="ThoughtBubble" transform="translate(57.000000, 0.000000)">
                <path d="M90,105 C87.7884028,105 86,106.792472 86,109 C86,111.207528 87.7884028,113 90,113 C92.2095626,113 94,111.207528 94,109 C94,106.792472 92.2095626,105 90,105" id="BubbleLightBlue" fill="#C2E8FF" fill-rule="nonzero"></path>
                <path d="M82,100 C82,103.312 79.3135,106 76,106 C72.688,106 70,103.312 70,100 C70,96.688 72.688,94 76,94 C79.3135,94 82,96.688 82,100 Z" id="BubbleWhiteSmaller" stroke="#C2E8FF" stroke-width="3"></path>
                <path d="M74.6668999,0 C60.9826893,0 49.0667373,7.68381905 42.7873454,19.0417704 C38.4307935,15.8917063 33.1203621,14.0197651 27.3782343,14.0197651 C12.6308063,14.0197651 0.682807,26.224143 0.682807,41.2788483 C0.682807,56.3354388 12.6308063,68.5398168 27.3782343,68.5398168 C27.6968224,68.5398168 28.0116404,68.5002289 28.3339988,68.488918 C33.1542945,75.5751486 41.1698977,80.2238969 50.2600291,80.2238969 C56.7090834,80.2238969 62.6265289,77.8863268 67.2394595,73.9972888 C69.6392391,74.5025056 72.1238499,74.7720802 74.6668999,74.7720802 C94.8906517,74.7720802 110.05281,58.3487653 110.05281,37.7027432 C110.05281,17.0548359 94.8906517,0 74.6668999,0 Z" id="BubbleWhiteLarge" stroke="#8CD3F8" stroke-width="3" stroke-linecap="round" stroke-linejoin="round" transform="translate(55.367808, 40.111948) scale(-1, 1) translate(-55.367808, -40.111948) "></path>
                <path d="M45.3214286,33.2857143 L58.6785714,33.2857143 C59.3464286,33.2857143 59.8928571,32.7392857 59.8928571,32.0714286 L59.8928571,29.6428571 C59.8928571,27.6392857 58.2535714,26 56.25,26 L47.75,26 C45.7464286,26 44.1071429,27.6392857 44.1071429,29.6428571 L44.1071429,32.0714286 C44.1071429,32.7392857 44.6535714,33.2857143 45.3214286,33.2857143 Z M65.3571429,29.0357143 L64.1428571,29.0357143 C63.7785714,29.0357143 63.5357143,29.2785714 63.5357143,29.6428571 L63.5357143,32.0714286 C63.5357143,34.7428571 61.35,36.9285714 58.6785714,36.9285714 L45.3214286,36.9285714 C42.65,36.9285714 40.4642857,34.7428571 40.4642857,32.0714286 L40.4642857,29.6428571 C40.4642857,29.2785714 40.2214286,29.0357143 39.8571429,29.0357143 L38.6428571,29.0357143 C36.6392857,29.0357143 35,30.675 35,32.6785714 L35,58.7857143 C35,60.7892857 36.6392857,62.4285714 38.6428571,62.4285714 L65.3571429,62.4285714 C67.3607143,62.4285714 69,60.7892857 69,58.7857143 L69,32.6785714 C69,30.675 67.3607143,29.0357143 65.3571429,29.0357143 Z M47.75,53.9285714 C47.75,54.5964286 47.2035714,55.1428571 46.5357143,55.1428571 L45.3214286,55.1428571 C44.6535714,55.1428571 44.1071429,54.5964286 44.1071429,53.9285714 L44.1071429,47.8571429 C44.1071429,47.1892857 44.6535714,46.6428571 45.3214286,46.6428571 L46.5357143,46.6428571 C47.2035714,46.6428571 47.75,47.1892857 47.75,47.8571429 L47.75,53.9285714 Z M53.8214286,53.9285714 C53.8214286,54.5964286 53.275,55.1428571 52.6071429,55.1428571 L51.3928571,55.1428571 C50.725,55.1428571 50.1785714,54.5964286 50.1785714,53.9285714 L50.1785714,42.3928571 C50.1785714,41.725 50.725,41.1785714 51.3928571,41.1785714 L52.6071429,41.1785714 C53.275,41.1785714 53.8214286,41.725 53.8214286,42.3928571 L53.8214286,53.9285714 Z M59.8928571,53.9285714 C59.8928571,54.5964286 59.3464286,55.1428571 58.6785714,55.1428571 L57.4642857,55.1428571 C56.7964286,55.1428571 56.25,54.5964286 56.25,53.9285714 L56.25,44.8214286 C56.25,44.1535714 56.7964286,43.6071429 57.4642857,43.6071429 L58.6785714,43.6071429 C59.3464286,43.6071429 59.8928571,44.1535714 59.8928571,44.8214286 L59.8928571,53.9285714 Z" id="ReportDarkBlue" fill="#8ED1F4" fill-rule="nonzero"></path>
            </g>
            <g id="Astro" transform="translate(148.000000, 109.000000)" fill-rule="nonzero">
                <g id="Tail" transform="translate(0.000000, 103.000000)">
                    <path d="M37.875,1.48170732 C37.875,1.48170732 25.1585366,-1.21646341 13.2134146,5.33536585 C13.2134146,5.33536585 21.1128049,4.95121951 20.7286585,6.20121951 C20.3445122,7.45121951 14.7560976,6.10365854 3.58231707,16.5091463 C3.58231707,16.5091463 6.85670732,15.8353659 7.82012195,16.8932927 C8.78353659,17.9512195 2.43902439,21.5182927 0.112804878,24.9878049 C0.112804878,24.9878049 12.4420732,29.2256098 24.0030488,23.8323171 C24.0030488,23.8323171 24.7743902,28.070122 40.5731707,20.3658537 C56.3719512,12.6615854 37.875,1.48170732 37.875,1.48170732 Z" id="TailLightBlue" stroke="#8ED1F4" stroke-width="3" fill="#C2E8FF"></path>
                    <g id="TailDarkBlue" transform="translate(9.000000, 1.000000)" fill="#8ED1F4">
                        <path d="M20.2164634,0.25 L20.8780488,3.01219512 L22.9481707,4.33536585 L22.2926829,7.81097561 C22.2926829,7.81097561 24,11.0121951 23.8170732,11.0121951 L20.8506098,10.25 L22.4756098,12.6463415 L21.7621951,15.2073171 L24.097561,17.2560976 L24.0182927,18.5152439 L27.7713415,20.4756098 L23.695122,21.4207317 L21.5121951,20.3536585 L21.3292683,17.6310976 L18.9390244,16.2865854 L19.9634146,12.4634146 L17.3658537,8.41768293 L19.8810976,8.21036585 L20.3231707,5.44207317 L18.7987805,3.88719512 L17.9969512,0.692073171 L20.2164634,0.25 Z" id="TailMarker3"></path>
                        <polygon id="TailMarker2" points="13.0030488 3.83536585 12.9634146 8.05182927 14.8323171 12.3292683 12.5060976 13.1859756 14.6707317 15.347561 13.2134146 17.8414634 16.4664634 22.1707317 12.4969512 22.6432927 10.5731707 17.3140244 12.1158537 14.9695122 10.6554878 12.7804878 8.67073171 10.2286585 10.5792683 9.95121951 8.48170732 7.25914634 13.0640244 5.16463415 8.0304878 2.75"></polygon>
                        <path d="M4.92378049,9.49390244 L5.02439024,13.9878049 C5.02439024,13.9878049 9.59756098,17.9512195 9.08841463,17.9268293 L7.16768293,17.9268293 L9.12804878,20.1646341 L8.47256098,21.902439 L11.5213415,23.625 L5.72865854,23.320122 L5.75,19.8323171 L2.7347561,16.5640244 L5.0304878,15.9542683 L1.16463415,13.6006098 L2.71036585,12.5152439 L0.908536585,10.8628049 L4.92378049,9.49390244 Z" id="TailMarker1"></path>
                    </g>
                </g>
                <g id="Body" transform="translate(26.000000, 72.000000)">
                    <path d="M8.12195122,6.14329268 C8.12195122,6.14329268 5.19817073,9.42987805 5.0304878,18.097561 C4.82317073,28.8170732 7.71036585,50.2530488 7.71036585,50.2530488 C7.71036585,50.2530488 4.51829268,56.9207317 4.41158537,60.972561 C4.20426829,68.804878 12.5640244,73.8353659 17.6036585,72.9268293 C22.0914634,72.1189024 23.9481707,62.0518293 25.3597561,61.9512195 C26.5792683,61.5426829 25.7682927,71.2164634 30.7957317,72.9268293 C37.3414634,75.1432927 45.5670732,67.7042683 46.3932927,61.9329268 C46.9786585,57.8323171 43.9207317,50.9390244 43.9207317,50.9390244 C43.9207317,50.9390244 48.4237805,33.3231707 48.3689024,22.347561 C48.3353659,15.0304878 18.6189024,1.46036585 18.6189024,1.46036585 L8.12195122,6.14329268 Z" id="BodyLightBlue" stroke="#8ED1F4" stroke-width="3" fill="#C2E8FF"></path>
                    <g id="BodyDarkBlue" transform="translate(13.000000, 19.000000)" fill="#8ED1F4">
                        <path d="M0.140243902,4.18292683 C0.213414634,4.48780488 0.518292683,12.1615854 4.46036585,19.0121951 C8.02743902,25.2195122 17.9908537,24.9878049 22.7103659,19.6890244 C30.6371951,10.777439 27.8932927,2.25914634 27.3506098,2.25914634 C26.8079268,2.25914634 4.03658537,-3.80487805 0.140243902,4.18292683 Z" id="TummyDarkBlue"></path>
                        <path d="M10.6219512,26.8871951 C9.5304878,25.7042683 12.1158537,37.4847561 12.5396341,42.3932927 C12.7256098,41.2012195 13.9603659,29.5670732 14.6310976,26.9207317 C14.4146341,27.0823171 12.7957317,28.2073171 10.6219512,26.8871951 Z" id="LegMarker"></path>
                    </g>
                    <g id="ArmsLightBlue" stroke="#8ED1F4" stroke-width="3" fill="#C2E8FF">
                        <path d="M5.32342937,0.692073171 C5.32342937,0.692073171 -1.78309864,4.2652439 0.425633887,15.0213415 C3.35486205,29.2439024 25.8083408,27.1128049 34.1865633,25.1219512 C40.3578079,23.613225 42.2518167,21.494098 47.722561,18.8170732 C47.722561,18.8170732 37.4032023,11.6890244 36.3441131,11.6890244 C35.2850239,11.6890244 26.2532371,13.9756098 22.8239928,13.4085366 C19.3947485,12.8414634 16.9891593,10.3170732 16.9891593,10.3170732 C16.9891593,10.3170732 8.76842217,-1.2347561 5.32342937,0.692073171 Z" id="Arm1"></path>
                        <path d="M34.0945122,5.32012195 L25.1890244,13.7926829 C25.1890244,13.7926829 26.8597561,15.0426829 29.9054878,17.5487805 C32.9512195,20.054878 32.2652439,24.3170732 41.8810976,26.4054878 C48.1006098,27.7591463 58.6493902,16.4085366 51.6189024,5.31707317 C34.0335366,12.6219512 34.0945122,5.32012195 34.0945122,5.32012195 Z" id="Arm2"></path>
                    </g>
                </g>
                <g id="Head" transform="translate(18.000000, 0.000000)">
                    <g id="HeadLightBlue" stroke="#8ED1F4" stroke-width="3">
                        <path d="M11.9603659,70.679878 C11.9603659,70.679878 -15.1737805,44.2835366 15.0091463,17.7347561 C15.0091463,17.7347561 25.6280488,8.625 40.1371951,11.722561 C40.1371951,11.722561 69.5335366,14.3963415 77.4817073,32.9878049 C85.5426829,51.8506098 84.7987805,73.0243902 56.0030488,82.5914634 C55.9939024,82.5945122 33.1890244,87.9237805 11.9603659,70.679878 Z" id="Head" fill="#C2E8FF"></path>
                        <path d="M61.3963415,18.5823171 C61.3963415,18.5823171 91.9847561,1.63109756 77.4512195,33.7987805" id="Ear2" fill="#C3E7FA"></path>
                        <path d="M37.7926829,12.0518293 C37.7926829,12.0518293 19.6432927,-17.8262195 16.304878,17.2987805" id="Ear1" fill="#C3E7FA"></path>
                    </g>
                    <g id="HeadWhite" transform="translate(13.000000, 2.000000)" fill="#FFFFFF">
                        <path d="M63,14 C61.4758683,13.8658003 58.5371279,14.487624 57,15 C54.0162759,15.9945747 51.4127367,16.8219129 49.0965832,18 C38.5212888,12.6413929 24.0594699,10.1043175 23.128051,10 C22.1972933,8.58157736 21.842433,8.27575566 20,6 C18.8375657,4.56417218 14,0 12,0 C12.582082,0.582081965 13.3261304,0.326130397 15,2 C16.20179,3.20179002 22.6360368,11.3086769 23.128051,12.0584789 C24.0594699,12.1627964 25.0102051,12.3151243 25.9782581,12.5217942 C25.9782581,12.5217942 38.4247056,14.6413929 49,20 C49.8609154,19.5621045 52.4236512,17.9295995 57,16 C57.8513722,15.6410222 59.0210563,14.6966635 62,14.5 C62.9716641,14.4358528 64.4505038,14.1277168 63,14 Z" id="Highlight" stroke="#FFFFFF" stroke-width="0.5" stroke-linecap="round" stroke-linejoin="round"></path>
                        <path d="M57.4847561,58.2652439 C54.6463415,68.75 43.9908537,75.4054878 31.7530488,75.3689024 C28.7045353,75.3587444 25.6705242,74.9487428 22.7286585,74.1493902 C10.5670732,70.8597561 1.90853659,61.7012195 0.283536585,51.6859756 C0.237804878,51.3810976 0.201219512,51.1036585 0.161585366,50.8140244 C-0.162435389,48.1693526 0.02805379,45.4869751 0.722560976,42.9146341 C4.24390244,29.902439 20.4756098,22.6036585 36.1493902,26.8445122 C38.9582331,27.5987255 41.6567802,28.7158604 44.1768293,30.1676829 C54.7957317,36.3109756 60.3506098,47.6737805 57.4847561,58.2652439 Z" id="Face" stroke="#8ED1F4" stroke-width="2"></path>
                    </g>
                    <path d="M36.7195122,89.0060976 C34.2804878,88.3292683 31.2926829,86.5914634 28.5304878,83.2621951 C24.2073171,78.0487805 29.1036585,79.1128049 29.1036585,70.0731707 C29.1036585,60.597561 43.3414634,70.3780488 45.1280488,75.9878049 C45.1280488,75.9878049 47.6493902,70.5243902 50.8993902,74.1585366 C52.320122,75.7469512 49.8963415,80.7286585 49.8963415,80.7286585 C49.8963415,80.7286585 42.1859756,90.5304878 36.7195122,89.0060976 Z" id="HandLightBlue" stroke="#8ED1F4" stroke-width="3" fill="#C3E7FA"></path>
                    <g id="HeadDarkBlue" transform="translate(4.000000, 3.000000)" fill="#8ED1F4">
                        <path d="M8.87804878,22.1036585 C8.87804878,22.1036585 -10.8292683,43.5579268 10.4878049,63.7012195 C10.4878049,63.7012195 -4.93597561,42.054878 8.87804878,22.1036585 Z" id="FaceMarker"></path>
                        <ellipse id="Eye2" transform="translate(47.132027, 61.678381) rotate(-69.240000) translate(-47.132027, -61.678381) " cx="47.1320267" cy="61.6783813" rx="4.19817073" ry="2.79878049"></ellipse>
                        <ellipse id="Eye1" transform="translate(22.433523, 52.315134) rotate(-69.240000) translate(-22.433523, -52.315134) " cx="22.4335235" cy="52.3151336" rx="4.19817073" ry="2.79878049"></ellipse>
                        <path d="M10.5457317,54.847561 C10.5457317,54.847561 12.8841463,37.7469512 17.0823171,38.5213415 C17.0823171,38.5213415 18.4085366,41.875 19.8262195,42.2560976 C20.0945122,42.3292683 21.3506098,33.6707317 26.5579268,32.3902439 C26.5579268,32.3902439 40.6768293,43.277439 43.5853659,40.1676829 C43.1341463,39.695122 37.9085366,35.777439 38.9085366,33.2835366 C39.4634146,31.8932927 51.8353659,35.695122 53.7195122,49.3414634 C54.4878049,50.125 56.5457317,48.2591463 57.8567073,45.0243902 C60.2957317,38.9817073 59.8384146,56.9756098 59.8536585,57.2530488 C59.8689024,57.5304878 61.2865854,57.277439 62.7865854,56.0518293 C64.2865854,54.8262195 60.5121951,66.2439024 59.9420732,67.3597561 C59.3719512,68.4756098 65.429878,63.6646341 67.1128049,55.6829268 C68.7957317,47.7012195 64.2591463,37.4542683 58.9329268,33.2042683 C53.8810976,29.1737805 45.4268293,22.0914634 28.2164634,25.277439 C9.92378049,28.6829268 8.61280488,46.5335366 8.60060976,46.847561 C8.5304878,48.8993902 9.92073171,54.4969512 10.5457317,54.847561 Z" id="Hair"></path>
                        <path d="M71.3140244,29.5365854 C74.2835366,27.402439 76.8018293,17.3719512 73.2896341,15.0304878 C73.2896341,15.0304878 71.5030488,14.3231707 70.0304878,15.0609756 C70.0304878,15.0609756 59.5914634,19.8780488 62.7926829,25.3689024 C65.5518293,30.0914634 69.3871951,30.9207317 71.3140244,29.5365854 Z" id="Ear2Inner"></path>
                        <path d="M15.1128049,14.3597561 C13.5884146,11.0335366 16.3841463,1.07621951 20.6006098,0.783536585 C20.6006098,0.783536585 22.5091463,1.06097561 23.4176829,2.42987805 C23.4176829,2.42987805 30.0914634,11.7835366 24.5884146,14.9634146 C19.8414634,17.7042683 16.1097561,16.5121951 15.1128049,14.3597561 Z" id="Ear1Inner"></path>
                    </g>
                </g>
            </g>
        </g>
    </g>
</svg>