<svg class="slds-illustration__svg" viewBox="0 0 300 200" xmlns="http://www.w3.org/2000/svg" id="no-access">
    <g id="NoAccessSimplified" stroke="none" stroke-width="1" fill="none" fill-rule="evenodd">
        <g id="NoAccess">
            <rect id="Rectangle-" fill-opacity="0" fill="#D8D8D8" x="0" y="0"></rect>
            <g id="Chest" transform="translate(14.000000, 48.000000)">
                <g id="ChestWhite" transform="translate(56.000000, 0.000000)" fill="#FFFFFF">
                    <polygon id="MiddlePartBkgd" points="121.5 48.5 158.5 48.5 158.5 34.5 47.5 34.5 47.5 48.5 93.5 48.5 93.5 69.5 121.5 69.5 121.5 48.5"></polygon>
                    <path d="M33.9882812,0.21875 C36.5611979,0.21875 70.6126302,0.21875 136.142578,0.21875 L152.384766,11.1132813 C155.083088,16.811292 155.656656,19.677503 154.105469,19.7119141 C152.554281,19.7463252 116.293865,17.6717809 45.3242187,13.4882812 C35.1940104,4.64192708 31.4153646,0.21875 33.9882812,0.21875 Z" id="CoverHightlight"></path>
                    <path d="M32.6708984,2.02246094 L21.5554199,0.374195518 L17.6036034,0.374195518 L5.77148437,7.90429688 C3.09089817,12.6737672 3.09089817,15.2284547 5.77148437,15.5683594 C8.45207058,15.9082641 16.1278518,14.3268839 28.7988281,10.8242188 L42.9921875,7.90429688 L41.0699892,5.68448183 L32.6708984,2.02246094 Z" id="SideHighlight"></path>
                    <rect id="SideWhite1" x="0" y="34" width="48" height="14"></rect>
                </g>
                <g id="ChestLightBlue" transform="translate(56.000000, 5.000000)" fill="#C2E8FF">
                    <polygon id="FrontPlateBkgd" points="93.3109375 43.4566406 93.3109375 64.6722656 120.925 64.6722656 121.823047 44.1324219 158.5 43.4566406 158.5 97.5 48.5 97.5 48.5 43.6933594"></polygon>
                    <path d="M132.670898,7.66300119e-19 C125.172201,-2.55433373e-19 94.1907552,-2.55433373e-19 39.7265625,7.66300119e-19 L31.8183594,12.5058594 L29.7050781,28.2714844 L157.78125,28.2714844 L157.78125,15.4775391 C148.539714,5.15917969 140.169596,1.78803361e-18 132.670898,7.66300119e-19 Z" id="CoverBkgd"></path>
                    <path d="M37.8266602,-3.55271368e-15 C34.4632704,-3.55271368e-15 29.4181858,-3.55271368e-15 22.6914062,-3.55271368e-15 C16.1624349,-3.55271368e-15 9.53808594,3.83528646 2.81835938,11.5058594 L0.705078125,30.2714844 L48.4101562,30.2714844 L48.4101562,14.4775391 L48.1789909,12.3275853 C43.283405,4.10919509 39.832628,-3.55271368e-15 37.8266602,-3.55271368e-15 Z" id="Side3Bkgd"></path>
                    <rect id="Side2Bkgd" x="0.5" y="43.5" width="48" height="54"></rect>
                </g>
                <g id="ChestDarkBlue">
                    <rect id="FrontPlate" stroke="#8CD3F8" stroke-width="3" stroke-linecap="round" stroke-linejoin="round" x="104.5" y="34.5" width="110" height="68"></rect>
                    <polygon id="MiddlePart" stroke="#8CD3F8" stroke-width="3" stroke-linecap="round" stroke-linejoin="round" points="214.5 48.5 214.5 34.5 104.5 34.5 104.5 48.5 149.5 48.5 149.5 69.5 177.5 69.5 177.5 48.5"></polygon>
                    <path d="M80.5,0.5 L184.5,0.5 C201.068542,0.5 214.5,13.9314575 214.5,30.5 L214.5,34.5 L56.5,34.5 L56.5,24.5 C56.5,11.245166 67.245166,0.5 80.5,0.5 Z" id="CoverOutline" stroke="#8CD3F8" stroke-width="3" stroke-linecap="round" stroke-linejoin="round"></path>
                    <path d="M80.5,0.5 L80.5,0.5 C93.754834,0.5 104.5,11.245166 104.5,24.5 L104.5,34.5 L56.5,34.5 L56.5,24.5 C56.5,11.245166 67.245166,0.5 80.5,0.5 Z" id="Side3" stroke="#8CD3F8" stroke-width="3" stroke-linecap="round" stroke-linejoin="round"></path>
                    <rect id="Side2" stroke="#8CD3F8" stroke-width="3" stroke-linecap="round" stroke-linejoin="round" x="56.5" y="48.5" width="48" height="54"></rect>
                    <rect id="Side1" stroke="#8CD3F8" stroke-width="3" stroke-linecap="round" stroke-linejoin="round" x="56.5" y="34.5" width="48" height="14"></rect>
                    <path d="M169,52 C169,54.765 166.765,57 164,57 C161.235,57 159,54.765 159,52 C159,49.235 161.235,47 164,47 C166.765,47 169,49.235 169,52 Z" id="Lock2" fill="#8CD3F8"></path>
                    <path d="M164,55 L164,60" id="Lock1" stroke="#8CD3F8" stroke-width="4" stroke-linecap="round"></path>
                    <circle id="Screws8" fill="#8CD3F8" cx="114" cy="58" r="3"></circle>
                    <circle id="Screws7" fill="#8CD3F8" cx="114" cy="93" r="3"></circle>
                    <circle id="Screws6" fill="#8CD3F8" cx="205" cy="58" r="3"></circle>
                    <circle id="Screws5" fill="#8CD3F8" cx="205" cy="93" r="3"></circle>
                    <circle id="Screws4" fill="#8CD3F8" cx="95" cy="58" r="3"></circle>
                    <circle id="Screws3" fill="#8CD3F8" cx="95" cy="93" r="3"></circle>
                    <circle id="Screws2" fill="#8CD3F8" cx="66" cy="58" r="3"></circle>
                    <circle id="Screws1" fill="#8CD3F8" cx="66" cy="93" r="3"></circle>
                    <path d="M239.928751,82.2971422 L248,102.518658 L230,102.518658 L238.071249,82.2971422 C238.275982,81.784207 238.857768,81.5343604 239.370703,81.7390942 C239.625359,81.8407378 239.827108,82.0424867 239.928751,82.2971422 Z" id="Grass4" fill="#8CD3F8"></path>
                    <path d="M250.428751,89.8132712 L255.5,102.518658 L243.5,102.518658 L248.571249,89.8132712 C248.775982,89.300336 249.357768,89.0504894 249.870703,89.2552232 C250.125359,89.3568668 250.327108,89.5586158 250.428751,89.8132712 Z" id="Grass3" fill="#8CD3F8"></path>
                    <path d="M43.4287513,82.2971422 L51.5,102.518658 L33.5,102.518658 L41.5712487,82.2971422 C41.7759825,81.784207 42.3577681,81.5343604 42.8707033,81.7390942 C43.1253588,81.8407378 43.3271077,82.0424867 43.4287513,82.2971422 Z" id="Grass2" fill="#8CD3F8" transform="translate(42.500000, 92.517446) scale(-1, 1) translate(-42.500000, -92.517446) "></path>
                    <path d="M26.9287513,89.8132712 L32,102.518658 L20,102.518658 L25.0712487,89.8132712 C25.2759825,89.300336 25.8577681,89.0504894 26.3707033,89.2552232 C26.6253588,89.3568668 26.8271077,89.5586158 26.9287513,89.8132712 Z" id="Grass1" fill="#8CD3F8" transform="translate(26.000000, 96.275510) scale(-1, 1) translate(-26.000000, -96.275510) "></path>
                    <path d="M0,102.5 L260,102.5" id="ChestHorizonLine1" stroke="#8CD3F8" stroke-width="3" stroke-linecap="round" stroke-linejoin="round"></path>
                </g>
            </g>
        </g>
        <path d="M279,150.5 L291,150.5" id="ChestHorizonLine2" stroke="#8CD3F8" stroke-width="3" stroke-linecap="round" stroke-linejoin="round"></path>
    </g>
</svg>