<svg class="slds-illustration__svg" viewBox="0 0 300 200" xmlns="http://www.w3.org/2000/svg" id="not-available-in-lightning">
    <g id="NotAvailableInLightningSimplified" stroke="none" stroke-width="1" fill="none" fill-rule="evenodd">
        <g id="NotAvailableInLightning">
            <rect id="Rectangle-" fill-opacity="0" fill="#D8D8D8" x="0" y="0"></rect>
            <g id="Kite" transform="translate(98.000000, 20.000000)">
                <g id="KiteWhite" transform="translate(64.000000, 0.000000)" fill="#FFFFFF">
                    <polygon id="KiteHighlight" points="18 0 0 62 76 100 82 18"></polygon>
                </g>
                <g id="KiteLightBlue" transform="translate(64.000000, 4.000000)" fill="#C2E8FF">
                    <path d="M20,0 L2.96289062,52.7529297 C1.5699673,54.8772379 0.7895311,56.2286377 0.621582031,56.8071289 C0.453632962,57.3856201 1.50213557,58.4144287 3.76708984,59.8935547 L75.6259766,95.125 L78.5678711,16.8793945 L76.9623727,16.0206673 L20,0 Z" id="KiteBkgd"></path>
                </g>
                <g id="KiteDarkBlue" stroke="#8CD3F8" stroke-width="3">
                    <polygon id="KiteOutline" stroke-linecap="round" stroke-linejoin="round" points="82 0 64 62 140 100 146 18"></polygon>
                    <path d="M82,0 L138,97" id="KiteLine3" stroke-linecap="round" stroke-linejoin="round"></path>
                    <path d="M64,62 C78.3379493,46.7755108 90.004616,36.7755108 99,32 C107.995384,27.2244892 123.662051,22.8911559 146,19" id="KiteLine2" stroke-linecap="round" stroke-linejoin="round"></path>
                    <path d="M101.433594,66.1289062 C90.5364583,102.473958 67.5260417,128.119141 32.4023438,143.064453 C16.3046875,150.985026 5.7265625,161.145182 0.66796875,173.544922" id="KiteString2" stroke-linecap="round" stroke-linejoin="round"></path>
                    <path d="M186.648013,85.1722617 C189.425932,95.0573882 186.702286,100.768573 178.477075,102.305817 C171.511753,103.462774 159.83637,97.2369386 155.094109,107.069929 C151.984354,114.632707 159.463752,119.531376 168.623384,125.286263 C179.781241,133.229709 176.344294,140.585476 167.770616,144.517523" id="KiteTail" stroke-linecap="round" stroke-linejoin="round" transform="translate(171.038991, 114.844892) scale(-1, 1) rotate(37.000000) translate(-171.038991, -114.844892) "></path>
                    <circle id="Key3" cx="47" cy="136" r="9"></circle>
                    <path d="M68.6347656,161.670898 L74.9882812,156.450439" id="Key2" stroke-linecap="round" stroke-linejoin="round"></path>
                    <polyline id="Key1" stroke-linecap="round" stroke-linejoin="round" transform="translate(68.035179, 156.889450) rotate(5.000000) translate(-68.035179, -156.889450) " points="51.8291473 144.829147 75.9497528 168.949753 84.2412109 160.658295"></polyline>
                    <polyline id="KiteLine1" stroke-linecap="round" stroke-linejoin="round" points="100 31 101 67 128 81"></polyline>
                </g>
            </g>
            <g id="Bubble" transform="translate(29.000000, 32.000000)">
                <g id="BubbleLightBlue" transform="translate(73.000000, 96.000000)">
                    <path d="M12,6 C12,9.312 9.3135,12 6,12 C2.688,12 0,9.312 0,6 C0,2.688 2.688,0 6,0 C9.3135,0 12,2.688 12,6 Z" id="SmallBubble2" stroke="#C2E8FF" stroke-width="3"></path>
                    <path d="M20,11 C17.7884028,11 16,12.792472 16,15 C16,17.207528 17.7884028,19 20,19 C22.2095626,19 24,17.207528 24,15 C24,12.792472 22.2095626,11 20,11" id="SmallBubble1" fill="#C2E8FF"></path>
                </g>
                <g id="BubbleDarkBlue">
                    <path d="M81.4291702,0 C66.4942844,0 53.489268,8.38608553 46.635968,20.7821025 C41.8812468,17.3441367 36.0854659,15.3011085 29.8185334,15.3011085 C13.7232569,15.3011085 0.683264235,28.6209116 0.683264235,45.0515493 C0.683264235,61.4842444 13.7232569,74.8040476 29.8185334,74.8040476 C30.1662391,74.8040476 30.50983,74.7608415 30.8616505,74.7484969 C36.1224996,82.4823771 44.8706928,87.556 54.7916213,87.556 C61.8300901,87.556 68.2883635,85.0047865 73.3228952,80.760308 C75.9420039,81.3116993 78.6536969,81.6059118 81.4291702,81.6059118 C103.501282,81.6059118 120.049193,63.6815798 120.049193,41.1486042 C120.049193,18.6135711 103.501282,0 81.4291702,0 Z" id="BubbleOutline" stroke="#8CD3F8" stroke-width="3" stroke-linecap="round" stroke-linejoin="round" transform="translate(60.366228, 43.778000) scale(-1, 1) translate(-60.366228, -43.778000) "></path>
                    <path d="M46.0898281,100.989963 L55.0540541,70 L42.9368382,70 C42.3845534,70 41.9368382,69.5522847 41.9368382,69 C41.9368382,68.9232556 41.9456726,68.8467663 41.9631671,68.7720425 L50.8597887,30.7720425 C50.9656674,30.3198046 51.368993,30 51.8334598,30 L77.263115,30 C77.8153998,30 78.263115,30.4477153 78.263115,31 C78.263115,31.1979556 78.2043627,31.3914578 78.0943003,31.5559956 L61.7432432,56 L77.2426574,56 C77.7949421,56 78.2426574,56.4477153 78.2426574,57 C78.2426574,57.201025 78.1820707,57.3973835 78.0688014,57.5634591 L47.8765906,101.831293 C47.5654008,102.287559 46.9432543,102.405167 46.4869876,102.093977 C46.129942,101.85046 45.9697371,101.405126 46.0898281,100.989963 Z" id="Lightning" fill="#8CD3F8"></path>
                </g>
            </g>
        </g>
    </g>
</svg>